<svg width="20" height="22" viewBox="0 0 20 22" fill="none" xmlns="http://www.w3.org/2000/svg">
<path fill-rule="evenodd" clip-rule="evenodd" d="M1.40214 0.312028C0.808315 0.597492 0.430487 1.19816 0.430487 1.85713V20.1429C0.430487 20.8018 0.808315 21.4025 1.40214 21.688C1.9962 21.9735 2.70111 21.8933 3.21562 21.4816L14.6442 12.3387C15.0509 12.0133 15.2876 11.5207 15.2876 11C15.2876 10.4793 15.0509 9.98674 14.6442 9.66125L3.21562 0.518498C2.70111 0.10684 1.9962 0.0265651 1.40214 0.312028ZM18.1436 0.143066C17.1969 0.143066 16.4293 0.910585 16.4293 1.85735V20.143C16.4293 21.0898 17.1969 21.8573 18.1436 21.8573C19.0904 21.8573 19.8579 21.0898 19.8579 20.143V1.85735C19.8579 0.910585 19.0904 0.143066 18.1436 0.143066Z" fill="#F2F2F2"/>
</svg>
