<svg width="24" height="24" viewBox="0 0 24 24" fill="none" xmlns="http://www.w3.org/2000/svg">
<path fill-rule="evenodd" clip-rule="evenodd" d="M21 1.26699C21.5995 1.55621 22 2.59936 22 3.26699V21.267C22 21.9346 21.5995 22.9778 21 23.267C20.4002 23.5562 19.5195 23.6841 19 23.267L8 13.267C7.88297 13.173 7.7514 13.0942 7.62309 13.0173C7.30129 12.8246 7 12.6441 7 12.267C7 11.8898 7.30129 11.7094 7.62309 11.5166C7.7514 11.4398 7.88297 11.361 8 11.267L19 1.26699C19.5195 0.849922 20.4002 0.977776 21 1.26699ZM4 1.26709C5.10456 1.26709 6 2.30787 6 3.26709V21.2671C6 22.2263 5.10456 23.2671 4 23.2671C2.89544 23.2671 2 22.2263 2 21.2671V3.26709C2 2.30787 2.89544 1.26709 4 1.26709Z" fill="#F2F2F2"/>
</svg>
