<svg width="20" height="22" viewBox="0 0 20 22" fill="none" xmlns="http://www.w3.org/2000/svg">
<path fill-rule="evenodd" clip-rule="evenodd" d="M1.38584 0.357003C1.15414 0.217983 0.86558 0.214343 0.63045 0.347473C0.39531 0.480603 0.249969 0.729923 0.249969 1.00012V10.0001C0.249969 10.2703 0.39531 10.5196 0.63045 10.6527C0.86558 10.7859 1.15414 10.7822 1.38584 10.6432L8.88587 6.14324C9.11177 6.0077 9.24997 5.76357 9.24997 5.50012C9.24997 5.23667 9.11177 4.99254 8.88587 4.857L1.38584 0.357003ZM10.2494 5C10.2494 4.58579 10.5852 4.25 10.9994 4.25H18.9993C19.4135 4.25 19.7493 4.58579 19.7493 5C19.7493 5.41421 19.4135 5.75 18.9993 5.75H10.9994C10.5852 5.75 10.2494 5.41421 10.2494 5ZM0.999756 12.2502C0.585546 12.2502 0.249756 12.586 0.249756 13.0002C0.249756 13.4144 0.585546 13.7502 0.999756 13.7502H18.9998C19.414 13.7502 19.7498 13.4144 19.7498 13.0002C19.7498 12.586 19.414 12.2502 18.9998 12.2502H0.999756ZM1.00018 20.2503C0.585963 20.2503 0.250183 20.5861 0.250183 21.0003C0.250183 21.4145 0.585963 21.7503 1.00018 21.7503H19.0002C19.4144 21.7503 19.7502 21.4145 19.7502 21.0003C19.7502 20.5861 19.4144 20.2503 19.0002 20.2503H1.00018Z" fill="#F2F2F2"/>
</svg>
